HIERARCHY
ROOT joint_0
{
	OFFSET 0.000000 0.000000 0.000000
	CHANNELS 6 Xposition Yposition Zposition Zrotation Yrotation Xrotation 
	JOINT joint_1
	{
		OFFSET 1.363060 -1.794630 0.839290
		CHANNELS 3 Zrotation Yrotation Xrotation
		JOINT joint_2
		{
			OFFSET 2.448110 -6.726130 0.000000
			CHANNELS 3 Zrotation Yrotation Xrotation
			JOINT joint_3
			{
				OFFSET 2.562200 -7.039590 0.000000
				CHANNELS 3 Zrotation Yrotation Xrotation
				JOINT joint_4
				{
					OFFSET 0.157640 -0.433110 2.322550
					CHANNELS 3 Zrotation Yrotation Xrotation
					End Site
					{
						OFFSET 0.000000 0.000000 0.000000
					}
				}
			}
		}
	}
	JOINT joint_5
	{
		OFFSET -1.305520 -1.794630 0.839290
		CHANNELS 3 Zrotation Yrotation Xrotation
		JOINT joint_6
		{
			OFFSET -2.542530 -6.985550 0.000000
			CHANNELS 3 Zrotation Yrotation Xrotation
			JOINT joint_7
			{
				OFFSET -2.568260 -7.056230 0.000000
				CHANNELS 3 Zrotation Yrotation Xrotation
				JOINT joint_8
				{
					OFFSET -0.164730 -0.452590 2.363150
					CHANNELS 3 Zrotation Yrotation Xrotation
					End Site
					{
						OFFSET 0.000000 0.000000 0.000000
					}
				}
			}
		}
	}
	JOINT joint_9
	{
		OFFSET 0.028270 2.035590 -0.193380
		CHANNELS 3 Zrotation Yrotation Xrotation
		JOINT joint_10
		{
			OFFSET 0.056720 2.048850 -0.042750
			CHANNELS 3 Zrotation Yrotation Xrotation
			JOINT joint_11
			{
				OFFSET -0.054170 1.746240 0.172020
				CHANNELS 3 Zrotation Yrotation Xrotation
				JOINT joint_12
				{
					OFFSET 0.104070 1.761360 -0.123970
					CHANNELS 3 Zrotation Yrotation Xrotation
					End Site
					{
						OFFSET 0.000000 0.000000 0.000000
					}
				}
			}
			JOINT joint_13
			{
				OFFSET 3.362410 1.200890 -0.311210
				CHANNELS 3 Zrotation Yrotation Xrotation
				JOINT joint_14
				{
					OFFSET 4.983000 -0.000000 -0.000000
					CHANNELS 3 Zrotation Yrotation Xrotation
					JOINT joint_15
					{
						OFFSET 3.483560 -0.000000 -0.000000
						CHANNELS 3 Zrotation Yrotation Xrotation
						JOINT joint_16
						{
							OFFSET 0.000000 0.000000 0.000000
							CHANNELS 3 Zrotation Yrotation Xrotation
							End Site
							{
								OFFSET 0.000000 0.000000 0.000000
							}
						}
					}
				}
			}
			JOINT joint_17
			{
				OFFSET -3.136600 1.374050 -0.404650
				CHANNELS 3 Zrotation Yrotation Xrotation
				JOINT joint_18
				{
					OFFSET -5.241900 -0.000000 -0.000000
					CHANNELS 3 Zrotation Yrotation Xrotation
					JOINT joint_19
					{
						OFFSET -3.444170 -0.000000 -0.000000
						CHANNELS 3 Zrotation Yrotation Xrotation
						JOINT joint_20
						{
							OFFSET 0.000000 0.000000 0.000000
							CHANNELS 3 Zrotation Yrotation Xrotation
							End Site
							{
								OFFSET 0.000000 0.000000 0.000000
							}
						}
					}
				}
			}
		}
	}
}
MOTION
Frames: 13
Frame Time: 0.031667
0.383414 16.863363 -1.810240 -1.405944 0.763194 0.967095 -25.303988 3.069687 -7.099195 -0.676877 -4.117342 9.815644 -0.676937 -2.479655 -10.196439 0.157847 -2.310557 -6.496047 30.484004 1.325690 -3.328625 -8.836242 -4.409957 11.224069 -0.120306 1.834864 -11.208410 -0.101102 2.181896 -5.805902 1.485158 0.491585 -6.295481 -1.887385 -0.392166 11.586936 5.865910 -2.521272 16.977827 1.658448 -0.691700 8.218358 -40.912879 -12.157357 14.556308 29.484712 -27.748427 -27.061672 8.206440 4.702955 -2.694631 -6.273194 0.033723 0.060255 39.513971 13.497101 2.296405 -30.052143 29.297301 -30.204535 -6.059142 -5.349716 -0.393031 6.321499 0.026137 0.044017 
0.383318 16.859610 -1.817252 -1.379972 0.747692 0.969901 -29.344861 3.400779 -7.784091 -1.421444 -5.462425 8.725520 -1.678134 -3.067750 -10.358994 0.133178 -1.811815 -5.317415 31.976474 -0.731830 -7.004975 -10.869156 -4.707034 10.383688 -0.034706 2.165785 -12.889204 -0.011379 0.746713 -1.991985 1.447309 0.113364 -6.258355 -1.100258 -0.252385 9.448762 5.128229 -2.095378 14.464276 1.401116 -0.567890 7.830834 -37.037789 -13.025393 13.646277 24.035635 -22.968806 -25.590293 7.189709 3.662343 -0.601339 -6.187624 0.018413 0.051528 37.693420 12.333520 1.198602 -32.564694 29.481180 -35.672358 -8.057295 -6.928304 -1.130504 6.241471 0.017724 0.035218 
0.359751 16.856756 -1.922252 -1.278687 2.231196 1.264987 -27.157192 3.170562 -6.175279 -1.054058 -3.122293 8.303829 -1.873885 -2.873825 -8.589441 0.070678 -1.601443 -4.509623 30.961597 -1.303130 -7.889206 -10.729083 -5.275526 10.709878 -0.447321 1.763734 -12.194348 -0.008312 -0.572906 1.609049 0.943628 -0.115773 -4.368721 -0.734932 -0.660622 9.926679 4.152666 -2.359631 13.755458 1.309841 -0.482558 7.506544 -36.308989 -13.608054 11.681587 21.051264 -19.016343 -26.149727 6.369944 3.835023 -1.866057 -6.134752 0.006972 0.041738 38.263536 10.970159 0.767271 -32.984117 24.928834 -37.996831 -9.604278 -7.903815 -1.134417 6.171223 0.012619 0.028048 
0.356616 16.846096 -1.948889 -0.875224 1.924792 0.723241 -20.859417 2.173019 -3.264560 -0.433551 -1.782747 5.176175 -2.243175 -2.602382 -8.616494 0.046350 -1.348613 -3.797222 29.529641 -2.381381 -6.496451 -10.648128 -4.738940 11.871570 -0.387976 1.016112 -11.474694 -0.007088 -0.492704 1.380069 0.417147 -0.169468 -2.617689 -0.128323 -1.351207 9.179484 2.823166 -2.176360 10.561927 1.455310 -0.471139 6.689638 -33.552212 -12.061089 9.819886 20.831806 -18.966521 -29.715359 5.165251 3.034008 -1.203183 -6.122548 -0.000072 0.038100 36.174029 10.609227 -1.594965 -31.785777 23.160643 -43.233539 -8.718676 -6.999010 -1.274241 6.150609 0.010816 0.025767 
0.352688 16.855104 -1.909324 -1.206381 1.764283 0.913657 -22.069431 2.780403 -4.093335 -0.456939 -1.197957 3.184501 -2.878822 -4.051860 -11.313985 0.039783 -1.307132 -3.670725 31.127764 -1.955007 -7.241947 -11.524393 -4.886485 10.464756 -0.376358 0.456125 -12.656030 -0.110364 -2.026208 5.657584 0.746856 -0.343378 -4.387247 0.107370 -0.885788 6.775113 3.148394 -1.923154 10.707347 2.176811 -0.654880 6.168243 -30.851264 -10.132624 9.335879 20.861750 -19.822097 -30.698503 3.154857 1.705254 -0.838429 -6.095649 -0.003972 0.033706 36.066577 10.717922 -1.946071 -31.025115 20.764454 -45.446369 -9.558662 -7.129663 -0.955649 6.119956 0.006456 0.020373 
0.353326 16.855556 -1.907733 -1.240121 1.724975 0.923689 -26.536385 2.644183 -5.450717 -0.755304 -1.428410 3.578088 -3.000576 -3.941387 -10.496526 0.034476 -1.270125 -3.565478 35.235621 -1.699317 -8.713331 -11.989766 -5.400545 9.399872 -0.375054 -0.038798 -13.603416 -0.157682 -2.368626 6.572773 0.802492 -0.301490 -3.546729 -0.101928 -1.245510 7.167148 4.468872 -1.956257 11.626701 3.450810 -1.078069 5.804492 -34.140939 -10.916779 9.574531 22.474643 -19.976546 -32.695759 1.953623 1.098986 -0.536876 -6.076260 -0.006622 0.027934 37.693271 12.104323 -2.111075 -32.206834 19.521532 -47.536458 -9.605988 -7.014756 -1.194750 6.097920 -0.000310 0.012807 
0.353497 16.856457 -1.906577 -1.280150 1.729442 0.936999 -26.188035 2.885596 -4.770176 -0.635885 -1.291941 3.195528 -3.066612 -4.200513 -10.480761 0.019467 -1.014284 -2.849785 36.555584 -1.839618 -8.710143 -13.147690 -6.338891 10.057637 -0.560776 -0.714226 -13.579691 -0.156439 -2.288323 6.297540 0.453566 -0.190697 -2.467829 -0.030478 -1.462417 7.000754 5.300348 -2.808817 13.039004 4.549320 -1.482367 5.453712 -35.394634 -11.418828 8.885753 21.641770 -19.321068 -32.519889 2.390446 1.235627 -0.688947 -6.066639 -0.009210 0.024707 39.560725 12.077230 -2.238902 -33.731446 18.791902 -51.763535 -10.161886 -7.221182 -1.236558 6.089291 -0.006353 0.006468 
0.354524 16.854355 -1.908769 -1.262170 1.675628 0.897137 -28.960917 3.366897 -5.462395 -0.836422 -1.502814 3.588656 -3.336900 -4.362278 -11.175942 0.011857 -0.851719 -2.377425 38.067768 -1.950223 -10.012852 -13.044973 -6.797076 11.221573 -0.734313 -1.246375 -13.697776 -0.161201 -2.278050 6.232811 0.654487 -0.192182 -3.467154 -0.091997 -1.282039 7.141911 4.870634 -2.812396 12.688275 4.733435 -1.692890 5.527556 -37.087325 -13.076737 9.074255 23.379580 -19.331870 -33.751661 0.633868 0.291121 -0.168896 -6.119222 -0.011316 0.022655 41.234601 12.754930 -2.811426 -35.606061 20.407615 -56.003729 -10.683212 -7.770254 -1.309185 6.149870 -0.007943 0.003612 
0.355215 16.853754 -1.910480 -1.258266 1.650171 0.888190 -31.249101 4.004332 -5.940759 -0.960031 -1.797351 4.049005 -3.655812 -5.112797 -12.399270 0.009044 -0.799970 -2.221223 39.814750 -0.925145 -10.294463 -13.095449 -7.026003 10.770316 -0.791377 -1.247248 -13.650747 -0.167175 -2.294124 6.237766 0.652677 -0.188926 -3.488298 -0.245887 -1.138054 7.549369 4.440467 -2.975807 12.775936 4.518021 -1.827909 6.132340 -38.278247 -13.829578 9.540407 26.244997 -18.669150 -37.156959 1.700366 0.821992 -0.480682 -6.192586 -0.014205 0.020833 43.031778 15.311170 -3.531336 -35.424815 21.907267 -57.394490 -10.394906 -7.579596 -1.643449 6.237392 -0.009258 0.000416 
0.354847 16.854204 -1.912898 -1.277922 1.673580 0.855423 -30.567924 3.830070 -4.236630 -0.998107 -1.902177 4.159539 -3.753156 -5.481094 -12.520422 0.009309 -0.834153 -2.314003 40.290163 -0.264107 -9.138641 -14.840690 -6.980224 9.709287 -0.787864 -1.060122 -13.591005 -0.180590 -2.346858 6.339293 0.763357 -0.224319 -4.170388 -0.372267 -0.981337 7.565391 4.084750 -2.965405 12.545412 4.769119 -1.969530 7.181495 -39.144405 -14.459429 10.376305 28.099638 -18.468232 -40.090640 2.583174 1.347606 -0.746957 -6.315776 -0.016491 0.020198 43.544629 16.638826 -4.751358 -35.937759 20.930037 -58.434816 -9.524670 -7.062893 -1.617785 6.380314 -0.010703 -0.001698 
0.355467 16.859909 -1.895105 -1.494062 1.709578 1.028775 -31.104024 3.577925 -3.752669 -1.007625 -1.648226 3.581587 -3.863349 -5.596047 -12.625285 0.011032 -0.878853 -2.445645 40.564557 -0.446397 -8.913704 -15.973657 -7.099072 6.954818 -0.804487 -0.996670 -14.496352 -0.176316 -2.307833 6.219067 0.773393 -0.211059 -4.726936 -0.470141 -1.170289 8.250108 3.532671 -2.665440 11.498964 5.552670 -2.349578 8.971275 -38.273151 -14.632314 10.339704 26.815476 -17.681824 -39.631913 1.304117 0.669192 -0.400751 -6.465269 -0.016044 0.021101 43.361126 16.014815 -6.040458 -36.632233 21.114417 -59.704940 -9.767076 -7.341464 -1.668631 6.548440 -0.010675 -0.001460 
0.355698 16.858559 -1.896486 -1.490068 1.658553 0.979278 -31.499644 3.516157 -4.202713 -1.244107 -1.946150 4.145705 -3.840749 -5.485840 -12.525400 0.010907 -0.863299 -2.411474 41.127939 -0.094016 -9.315706 -15.835873 -7.156034 6.701597 -0.913207 -1.072060 -13.948052 -0.168077 -2.241576 6.058509 0.765910 -0.216586 -4.381046 -0.396551 -1.314534 8.274843 3.528939 -2.729299 11.811858 6.548612 -2.775971 11.325652 -37.863786 -15.332929 9.910824 26.201342 -17.692541 -39.531567 1.786102 0.909173 -0.555729 -6.576388 -0.015519 0.022653 44.020381 16.957529 -5.419103 -36.503887 20.708958 -59.903077 -9.898184 -7.520596 -1.756546 6.677117 -0.009778 0.000250 
0.356209 16.859009 -1.897598 -1.467705 1.612175 0.967268 -31.747009 3.537886 -4.342493 -1.174536 -1.781487 3.896657 -3.724765 -5.298231 -12.510963 0.010813 -0.863802 -2.415293 41.293522 -0.194455 -9.557648 -16.577247 -7.421843 7.452375 -0.976923 -1.196392 -13.836712 -0.165285 -2.212127 5.979600 0.763962 -0.228561 -4.141229 -0.466597 -1.401659 8.378953 3.600791 -2.594334 11.421299 7.594512 -3.430010 13.940350 -36.114864 -15.612498 9.398628 26.199348 -17.788230 -39.838875 2.090202 1.059908 -0.628173 -6.592554 -0.016479 0.022863 43.955998 17.343361 -5.530847 -35.913329 20.436896 -59.918611 -9.702277 -7.470279 -1.786907 6.695670 -0.009298 0.001116 
